<svg width="59" height="59" viewBox="0 0 59 59" fill="none" xmlns="http://www.w3.org/2000/svg">
<rect width="59" height="59" rx="10" fill="white"/>
<path d="M26.6781 11.0547H27.2406V11.1484C26.0531 12.3516 25.4594 13.25 25.4594 13.8438C25.5063 21.5 25.5688 25.3281 25.6469 25.3281C27.0375 24.625 28.0688 24.2734 28.7406 24.2734C29.4438 24.2734 30.3188 24.4297 31.3656 24.7422V24.9297C30.3031 25.9453 29.7719 27.0078 29.7719 28.1172H29.6781C28.9125 27.3516 28.3188 26.9688 27.8969 26.9688H27.8031C26.8969 26.9688 26.1781 27.2266 25.6469 27.7422L25.9281 45.7656C25.9281 46.875 26.5531 47.6719 27.8031 48.1562V48.3672H26.8656L17.9594 48.25V48.0625C19.2719 47.375 19.9281 46.6094 19.9281 45.7656V31.3984H19.8344C18.2875 32.3047 16.6938 33.0078 15.0531 33.5078V43.3516C15.0531 44.4141 15.7094 45.25 17.0219 45.8594V46.0469H15.8031L6.24063 45.9531V45.7656C6.92813 45.7656 7.67813 45.1875 8.49063 44.0312C8.61563 43.7344 8.67813 43.3125 8.67813 42.7656V32.9453C7.74063 32.8047 6.67813 32.2891 5.49063 31.3984C4.49063 30.3984 3.99063 29.2422 3.99063 27.9297V27.5312C4.86563 26.8281 5.77188 26.4766 6.70938 26.4766H7.45938V26.6641C6.08438 27.0078 5.39688 27.4609 5.39688 28.0234V28.2109C5.39688 29.5234 6.49063 30.5234 8.67813 31.2109V31.0234L8.58438 15.2969C8.58438 14.25 7.99063 13.4141 6.80313 12.7891V12.6016H15.8031V12.6953C15.1156 13.3984 14.7719 14.0703 14.7719 14.7109L15.0531 31.3047H15.1469C15.9906 31.0391 17.5844 30.2344 19.9281 28.8906V13.6562C19.9281 12.5781 19.3031 11.8047 18.0531 11.3359V11.1484L26.6781 11.0547ZM44.5328 10.75L44.7203 10.9375V13.4688L49.5016 11.5938L55.1266 19L53.9078 30.3438L48.5641 33.1562L44.7203 29.2188L44.8141 35.7812V39.625H44.7203C43.4703 37.9375 42.8453 36.9688 42.8453 36.7188H42.7516V36.9062L42.9391 48.3438L43.0328 49.4688H42.8453L41.5328 47.2188H41.3453V47.3125L40.4078 58.4688H40.2203L36.7516 38.5938H36.8453L38.4391 39.625H38.5328L36.6578 27.4375L36.7516 27.3438L39.0953 28.375V28.2812L37.0328 10.8438L37.1266 10.75H44.5328ZM44.7203 15.7188V28.1875C46.7047 29.375 47.8922 29.9688 48.2828 29.9688L49.2203 28.8438L48.6578 14.5L48.5641 14.2188L44.7203 15.7188Z" fill="#2D2D2D"/>
</svg>
