<svg width="27" height="25" viewBox="0 0 27 25" fill="none" xmlns="http://www.w3.org/2000/svg">
<path d="M12.3391 0.527344H12.6203V0.574219C12.0266 1.17578 11.7297 1.625 11.7297 1.92188C11.7531 5.75 11.7844 7.66406 11.8234 7.66406C12.5188 7.3125 13.0344 7.13672 13.3703 7.13672C13.7219 7.13672 14.1594 7.21484 14.6828 7.37109V7.46484C14.1516 7.97266 13.8859 8.50391 13.8859 9.05859H13.8391C13.4563 8.67578 13.1594 8.48438 12.9484 8.48438H12.9016C12.4484 8.48438 12.0891 8.61328 11.8234 8.87109L11.9641 17.8828C11.9641 18.4375 12.2766 18.8359 12.9016 19.0781V19.1836H12.4328L7.97969 19.125V19.0312C8.63594 18.6875 8.96406 18.3047 8.96406 17.8828V10.6992H8.91719C8.14375 11.1523 7.34688 11.5039 6.52656 11.7539V16.6758C6.52656 17.207 6.85469 17.625 7.51094 17.9297V18.0234H6.90156L2.12031 17.9766V17.8828C2.46406 17.8828 2.83906 17.5938 3.24531 17.0156C3.30781 16.8672 3.33906 16.6562 3.33906 16.3828V11.4727C2.87031 11.4023 2.33906 11.1445 1.74531 10.6992C1.24531 10.1992 0.995313 9.62109 0.995313 8.96484V8.76562C1.43281 8.41406 1.88594 8.23828 2.35469 8.23828H2.72969V8.33203C2.04219 8.50391 1.69844 8.73047 1.69844 9.01172V9.10547C1.69844 9.76172 2.24531 10.2617 3.33906 10.6055V10.5117L3.29219 2.64844C3.29219 2.125 2.99531 1.70703 2.40156 1.39453V1.30078H6.90156V1.34766C6.55781 1.69922 6.38594 2.03516 6.38594 2.35547L6.52656 10.6523H6.57344C6.99531 10.5195 7.79219 10.1172 8.96406 9.44531V1.82812C8.96406 1.28906 8.65156 0.902344 8.02656 0.667969V0.574219L12.3391 0.527344ZM21.2664 0.375L21.3602 0.46875V1.73438L23.7508 0.796875L26.5633 4.5L25.9539 10.1719L23.282 11.5781L21.3602 9.60938L21.407 12.8906V14.8125H21.3602C20.7352 13.9688 20.4227 13.4844 20.4227 13.3594H20.3758V13.4531L20.4695 19.1719L20.5164 19.7344H20.4227L19.7664 18.6094H19.6727V18.6562L19.2039 24.2344H19.1102L17.3758 14.2969H17.4227L18.2195 14.8125H18.2664L17.3289 8.71875L17.3758 8.67188L18.5477 9.1875V9.14062L17.5164 0.421875L17.5633 0.375H21.2664ZM21.3602 2.85938V9.09375C22.3523 9.6875 22.9461 9.98438 23.1414 9.98438L23.6102 9.42188L23.3289 2.25L23.282 2.10938L21.3602 2.85938Z" fill="#2D2D2D"/>
</svg>
